<?xml version="1.0" standalone="no"?><!DOCTYPE svg PUBLIC "-//W3C//DTD SVG 1.1//EN" "http://www.w3.org/Graphics/SVG/1.1/DTD/svg11.dtd"><svg class="icon" width="200px" height="200.00px" viewBox="0 0 1024 1024" version="1.1" xmlns="http://www.w3.org/2000/svg"><path fill="#333333" d="M184.637696 812.567543 109.098255 812.567543c-13.890358 0-25.178449 11.269671-25.178449 25.174356 0 13.908778 11.288091 25.183566 25.178449 25.183566l75.538417 0c13.891382 0 25.179472-11.275811 25.179472-25.183566C209.817168 823.836191 198.529077 812.567543 184.637696 812.567543zM914.82909 812.567543 360.890932 812.567543c-13.895475 0-25.183566 11.269671-25.183566 25.174356 0 13.908778 11.289114 25.183566 25.183566 25.183566L914.82909 862.925465c13.890358 0 25.178449-11.275811 25.178449-25.183566C940.008562 823.836191 928.719448 812.567543 914.82909 812.567543zM184.637696 485.235426 109.098255 485.235426c-13.890358 0-25.178449 11.274788-25.178449 25.182542 0 13.904685 11.288091 25.178449 25.178449 25.178449l75.538417 0c13.891382 0 25.179472-11.274788 25.179472-25.178449C209.817168 496.510214 198.529077 485.235426 184.637696 485.235426zM914.82909 485.235426 360.890932 485.235426c-13.895475 0-25.183566 11.274788-25.183566 25.182542 0 13.904685 11.289114 25.178449 25.183566 25.178449L914.82909 535.596418c13.890358 0 25.178449-11.274788 25.178449-25.178449C940.008562 496.510214 928.719448 485.235426 914.82909 485.235426zM184.637696 157.909449 109.098255 157.909449c-13.890358 0-25.178449 11.276834-25.178449 25.181519 0 13.902638 11.288091 25.177426 25.178449 25.177426l75.538417 0c13.891382 0 25.179472-11.273764 25.179472-25.177426C209.817168 169.18526 198.529077 157.909449 184.637696 157.909449zM360.890932 208.267371 914.82909 208.267371c13.890358 0 25.178449-11.273764 25.178449-25.177426 0-13.904685-11.288091-25.181519-25.178449-25.181519L360.890932 157.908426c-13.895475 0-25.183566 11.276834-25.183566 25.181519C335.707366 196.993606 346.99648 208.267371 360.890932 208.267371z" /></svg>