<?xml version="1.0" standalone="no"?><!DOCTYPE svg PUBLIC "-//W3C//DTD SVG 1.1//EN" "http://www.w3.org/Graphics/SVG/1.1/DTD/svg11.dtd"><svg class="icon" width="200px" height="200.00px" viewBox="0 0 1024 1024" version="1.1" xmlns="http://www.w3.org/2000/svg"><path d="M508.63 927.94H348.88a32 32 0 0 1-32-32v-148a32 32 0 0 1 32-32h159.75a32 32 0 0 1 32 32v148a32 32 0 0 1-32 32z m-127.75-64h95.75v-84h-95.75z" fill="#1AD8E2" /><path d="M575.76 507.66m31.96 0l64.1 0q31.96 0 31.96 31.96l0 0q0 31.96-31.96 31.96l-64.1 0q-31.96 0-31.96-31.96l0 0q0-31.96 31.96-31.96Z" fill="#1AD8E2" /><path d="M44.764099 570.222025m22.634488-22.634488l418.755707-418.755707q22.634488-22.634488 45.268976 0l-0.007071-0.007071q22.634488 22.634488 0 45.268976l-418.755707 418.755707q-22.634488 22.634488-45.268976 0l0.007071 0.007071q-22.634488-22.634488 0-45.268976Z" fill="#2C77E5" /><path d="M926.518969 615.044957m-22.945615-22.945615l-418.133453-418.133453q-22.945615-22.945615 0-45.891231l-0.007071 0.007072q22.945615-22.945615 45.89123 0l418.133453 418.133452q22.945615 22.945615 0 45.891231l0.007071-0.007071q-22.945615 22.945615-45.89123 0Z" fill="#2C77E5" /><path d="M832.42 927.64H192.3a32 32 0 0 1-32-32V473.83a32 32 0 0 1 64 0v389.81h576.12V473.83a32 32 0 0 1 64 0v421.81a32 32 0 0 1-32 32z" fill="#2C77E5" /></svg>