<?xml version="1.0" standalone="no"?><!DOCTYPE svg PUBLIC "-//W3C//DTD SVG 1.1//EN" "http://www.w3.org/Graphics/SVG/1.1/DTD/svg11.dtd"><svg class="icon" width="200px" height="200.00px" viewBox="0 0 1024 1024" version="1.1" xmlns="http://www.w3.org/2000/svg"><path fill="#333333" d="M341.333333 113.777778v227.555555H113.777778V113.777778h227.555555m0-113.777778H113.777778C51.2 0 0 51.2 0 113.777778v227.555555c0 62.577778 51.2 113.777778 113.777778 113.777778h341.333333V113.777778c0-62.577778-51.2-113.777778-113.777778-113.777778zM341.333333 682.666667v227.555555H113.777778v-227.555555h227.555555m113.777778-113.777778H113.777778c-62.577778 0-113.777778 51.2-113.777778 113.777778v227.555555c0 62.577778 51.2 113.777778 113.777778 113.777778h227.555555c62.577778 0 113.777778-51.2 113.777778-113.777778v-341.333333zM910.222222 113.777778v227.555555h-227.555555V113.777778h227.555555m0-113.777778h-227.555555c-62.577778 0-113.777778 51.2-113.777778 113.777778v341.333333h341.333333c62.577778 0 113.777778-51.2 113.777778-113.777778V113.777778c0-62.577778-51.2-113.777778-113.777778-113.777778zM910.222222 682.666667v227.555555h-227.555555v-227.555555h227.555555m0-113.777778h-341.333333v341.333333c0 62.577778 51.2 113.777778 113.777778 113.777778h227.555555c62.577778 0 113.777778-51.2 113.777778-113.777778v-227.555555c0-62.577778-51.2-113.777778-113.777778-113.777778z" /></svg>