<?xml version="1.0" standalone="no"?><!DOCTYPE svg PUBLIC "-//W3C//DTD SVG 1.1//EN" "http://www.w3.org/Graphics/SVG/1.1/DTD/svg11.dtd"><svg class="icon" width="200px" height="200.00px" viewBox="0 0 1024 1024" version="1.1" xmlns="http://www.w3.org/2000/svg"><path fill="#333333" d="M512 888.32a376.32 376.32 0 1 1 376.32-376.32 376.7296 376.7296 0 0 1-376.32 376.32z m0-691.2a314.88 314.88 0 1 0 314.88 314.88A315.2384 315.2384 0 0 0 512 197.12z"  /><path fill="#333333" d="M512 722.5344a172.544 172.544 0 0 1-148.8896-85.9136 30.72 30.72 0 1 1 53.1968-30.72 110.4896 110.4896 0 0 0 191.3856 0 30.72 30.72 0 1 1 53.1968 30.72A172.544 172.544 0 0 1 512 722.5344zM396.6464 473.1392h-0.3584a32.5632 32.5632 0 0 1-32.512-32.512V348.8768a32.7168 32.7168 0 0 1 65.3824 0v91.7504a32.5632 32.5632 0 0 1-32.512 32.512zM627.712 473.1392h-0.3584a32.5632 32.5632 0 0 1-32.512-32.512V348.8768a32.7168 32.7168 0 0 1 65.3824 0v91.7504a32.5632 32.5632 0 0 1-32.512 32.512z"  /></svg>