<?xml version="1.0" standalone="no"?><!DOCTYPE svg PUBLIC "-//W3C//DTD SVG 1.1//EN" "http://www.w3.org/Graphics/SVG/1.1/DTD/svg11.dtd"><svg class="icon" width="200px" height="200.00px" viewBox="0 0 1024 1024" version="1.1" xmlns="http://www.w3.org/2000/svg"><path d="M512 512m-388.626963 0a388.626963 388.626963 0 1 0 777.253926 0 388.626963 388.626963 0 1 0-777.253926 0Z" fill="#A7C69E" /><path d="M512 540.444444a28.444444 28.444444 0 0 1-28.444444-28.444444V237.814519a28.444444 28.444444 0 1 1 56.888888 0V512a28.444444 28.444444 0 0 1-28.444444 28.444444z" fill="#FFFFFF" /><path d="M696.661333 638.331259c-4.380444 0-8.817778-1.024-12.989629-3.147852l-184.69926-95.04237a28.463407 28.463407 0 0 1 26.055112-50.593185l184.699259 95.04237a28.463407 28.463407 0 0 1-13.065482 53.741037z" fill="#FFFFFF" /></svg>