<?xml version="1.0" standalone="no"?><!DOCTYPE svg PUBLIC "-//W3C//DTD SVG 1.1//EN" "http://www.w3.org/Graphics/SVG/1.1/DTD/svg11.dtd"><svg class="icon" width="200px" height="200.00px" viewBox="0 0 1024 1024" version="1.1" xmlns="http://www.w3.org/2000/svg"><path fill="#333333" d="M894.72 246.1184c-18.5856-23.808-46.5408-37.4784-76.6976-37.4784H355.4304c-5.8368-27.648-26.9824-49.3568-54.7328-55.808l-106.0352-24.7296c-41.9328-9.7792-84.2752 14.0288-96.4608 54.1696-6.5024 21.4528-3.8912 43.8784 7.2704 63.232a80.1792 80.1792 0 0 0 51.0464 37.8368l51.2 11.9296 134.9632 331.4176c15.0016 36.8128 50.3296 60.5696 90.112 60.5696h313.8048c44.6464 0 83.456-30.2592 94.3104-73.5232l71.4752-284.1088c7.3216-29.2352 0.9216-59.6992-17.664-83.5072zM435.5584 706.7136c-50.8928 0-92.2624 41.3696-92.2624 92.2624s41.3696 92.2624 92.2624 92.2624 92.2624-41.3696 92.2624-92.2624-41.4208-92.2624-92.2624-92.2624zM737.8944 706.7136c-50.8928 0-92.2624 41.3696-92.2624 92.2624s41.3696 92.2624 92.2624 92.2624 92.2624-41.3696 92.2624-92.2624-41.4208-92.2624-92.2624-92.2624z"  /></svg>